<svg width="36" height="40" viewBox="0 0 36 40" fill="none" xmlns="http://www.w3.org/2000/svg">
<path d="M17.4203 0C10.1428 5.91819 0.4922 5.16971 0 5.22193V17.5457C0 34.2559 17.5434 40 17.561 40C27.9499 36.0487 35.1219 27.1715 35.1219 17.5457V5.22193C34.7001 5.1349 28.3894 6.07485 17.4203 0Z" fill="#281BA4"/>
<path d="M17.4437 3.90247C11.3791 8.66589 3.33692 8.06345 2.92676 8.10548V18.0246C2.92676 31.4743 17.5463 36.0976 17.5609 36.0976C26.2183 32.9173 32.195 25.7722 32.195 18.0246V8.10548C31.8435 8.03543 26.5846 8.79198 17.4437 3.90247Z" fill="#281BA4" stroke="white" stroke-width="1.5" stroke-miterlimit="10"/>
<path d="M13.7984 28.8229C13.6508 28.8229 13.5166 28.7798 13.3824 28.7287L13.2326 28.6738L13.1767 28.5384C10.6159 22.4371 8.37938 19.5758 7.53846 18.5003C7.17167 18.0293 7.07103 17.9037 7.19627 17.6938L7.30139 17.5171L7.54517 17.5093C7.59213 17.5093 7.6391 17.5152 7.6883 17.5289C8.26979 17.6918 12.66 20.4628 13.9169 21.3616C15.1112 20.4962 20.5124 15.9923 22.6795 14.1594C23.5003 13.4666 27.3135 10.9703 28.1902 10.9703C28.3736 10.9703 28.5257 11.0429 28.6085 11.1725L28.8232 11.5061L28.4139 11.6415C26.3563 12.3284 16.6365 25.108 15.2857 27.1862C15.1604 27.3786 15.0508 27.5473 14.9569 27.6965C14.4 28.5619 14.2323 28.8229 13.7984 28.8229Z" fill="white"/>
</svg>
