<svg width="44" height="44" viewBox="0 0 44 44" fill="none" xmlns="http://www.w3.org/2000/svg">
<path d="M26.2006 7.51827L26.2007 7.5184L36.6757 18.0194C37.0069 18.3505 37.0069 18.8868 36.6757 19.218L34.5729 21.3208C34.2417 21.652 33.7054 21.652 33.3743 21.3208L32.5717 20.5182L17.3878 35.7021C17.3877 35.7023 17.3875 35.7024 17.3874 35.7026C16.5842 36.5186 15.2972 36.5623 14.4215 35.8777L12.9087 37.3904C12.5776 37.7216 12.0413 37.7216 11.7101 37.3904L10.9075 36.5879L8.71609 38.7793C8.38492 39.1105 7.84862 39.1105 7.51745 38.7793L7.06536 38.3272L2.42252 42.9701C2.22956 43.1771 1.99977 43.2651 1.77464 43.2559C1.55281 43.2469 1.34879 43.1442 1.19928 42.9947C1.04977 42.8452 0.947081 42.6412 0.938047 42.4193C0.928876 42.1941 1.01696 41.9643 1.22408 41.7713L5.87942 37.1413L5.42762 36.6895C5.09645 36.3583 5.09645 35.822 5.42762 35.4909L7.61907 33.2994L6.81651 32.4969C6.48539 32.1657 6.48535 31.6295 6.81638 31.2984C6.81642 31.2983 6.81647 31.2983 6.81651 31.2982L8.3296 29.7729C7.64468 28.896 7.70189 27.6092 8.50387 26.8071L26.2006 7.51827ZM26.2006 7.51827C26.0607 7.37842 25.8623 7.27639 25.6446 7.26056C25.4225 7.2444 25.1884 7.31886 24.989 7.51827L22.8991 9.6081C22.568 9.93927 22.568 10.4756 22.8991 10.8067L23.6888 11.5964L8.50396 26.807L26.2006 7.51827ZM34.0882 1.20984L34.0878 1.21017L31.9983 3.31265C31.9983 3.31272 31.9982 3.3128 31.9981 3.31288C31.6672 3.64406 31.6673 4.1802 31.9983 4.51129L32.8009 5.31384L29.2855 8.82929L29.1794 8.93535L29.2855 9.04142L30.272 10.0279L30.378 10.134L30.4841 10.0279L33.9866 6.52546L37.6815 10.2204L34.179 13.7229L34.073 13.8289L34.179 13.935L35.1655 14.9215L35.2716 15.0276L35.3777 14.9215L38.8801 11.419L39.6827 12.2216C40.0139 12.5528 40.5502 12.5528 40.8813 12.2216L42.9841 10.1188C43.3153 9.78762 43.3153 9.25131 42.9841 8.92015L35.2869 1.20993L35.2869 1.2099L35.2844 1.20751C34.9273 0.865933 34.4188 0.879225 34.0882 1.20984ZM9.70259 28.0057L24.9003 12.8079L31.386 19.2936L16.1883 34.4914C15.9599 34.7198 15.6285 34.7161 15.4164 34.4939L15.4164 34.4938L15.4139 34.4914L9.70259 28.78C9.4742 28.5517 9.47784 28.2203 9.7001 28.0081L9.70013 28.0081L9.70259 28.0057ZM19.7601 19.8446C19.537 19.8446 19.3176 19.9394 19.1608 20.0962L11.4635 27.7935C11.1323 28.1247 11.1323 28.661 11.4635 28.9922L15.1888 32.7175C15.52 33.0487 16.0563 33.0487 16.3875 32.7175L27.8101 21.2948C28.3415 20.7635 27.9736 19.83 27.2093 19.8446H19.7601ZM8.61429 31.8847L9.50566 30.9934L13.2012 34.6889L12.309 35.5917L8.61429 31.8847ZM7.21336 36.065L8.81695 34.4843L9.7089 35.3763L8.11677 36.9684L7.21336 36.065Z" fill="#281BA4" stroke="#281BA4" stroke-width="0.3"/>
</svg>
