<svg width="46" height="44" viewBox="0 0 46 44" fill="none" xmlns="http://www.w3.org/2000/svg">
<path d="M25.9357 18.1245C25.2443 17.7929 24.5318 17.5107 23.8121 17.2708C26.1474 15.5211 27.6572 12.7344 27.6572 9.59489C27.6572 4.30359 23.3536 0 18.0623 0C12.771 0 8.46737 4.30359 8.46737 9.59489C8.46737 12.7344 9.98421 15.5282 12.3194 17.2779C10.1747 17.9834 8.16401 19.084 6.40729 20.5302C3.18313 23.183 0.939617 26.8869 0.0930087 30.9506C-0.175084 32.2275 0.142394 33.5327 0.967837 34.5416C1.78622 35.5434 2.99264 36.1219 4.28372 36.1219H21.6603C22.4364 36.1219 23.0714 35.487 23.0714 34.7109C23.0714 33.9349 22.4364 33.2999 21.6603 33.2999H4.28372C3.68404 33.2999 3.31717 32.9613 3.15491 32.7637C2.87271 32.418 2.76688 31.9665 2.8586 31.5291C4.32605 24.4952 10.5275 19.3591 17.6883 19.1827C17.8153 19.1898 17.9353 19.1898 18.0623 19.1898C18.1893 19.1898 18.3162 19.1898 18.4432 19.1827C20.6374 19.2321 22.7468 19.733 24.7222 20.6713C25.4278 21.0029 26.2673 20.7066 26.5989 20.0011C26.9375 19.3027 26.6342 18.4631 25.9357 18.1245ZM18.408 16.3607C18.2951 16.3607 18.1822 16.3607 18.0623 16.3607C17.9494 16.3607 17.8365 16.3607 17.7236 16.3607C14.1467 16.1843 11.2894 13.2141 11.2894 9.59489C11.2894 5.86276 14.3301 2.82203 18.0623 2.82203C21.7944 2.82203 24.8351 5.86276 24.8351 9.59489C24.8351 13.2141 21.9849 16.1773 18.408 16.3607Z" fill="#281BA4"/>
<path d="M44.4443 31.46C44.4443 37.9755 39.1697 43.2501 32.6543 43.2501C26.1388 43.2501 20.8643 37.9755 20.8643 31.46C20.8643 24.9446 26.1388 19.67 32.6543 19.67C39.1697 19.67 44.4443 24.9446 44.4443 31.46Z" fill="#281BA4" stroke="white" stroke-width="1.5"/>
<path d="M37.7068 29.2092H34.1698V25.3508C34.1698 24.4363 33.4923 23.6971 32.654 23.6971C31.8157 23.6971 31.1382 24.4363 31.1382 25.3508V29.2092H27.6013C26.763 29.2092 26.0854 29.9484 26.0854 30.8629C26.0854 31.7774 26.763 32.5165 27.6013 32.5165H31.1382V36.375C31.1382 37.2895 31.8157 38.0286 32.654 38.0286C33.4923 38.0286 34.1698 37.2895 34.1698 36.375V32.5165H37.7068C38.5451 32.5165 39.2226 31.7774 39.2226 30.8629C39.2111 29.9484 38.5336 29.2092 37.7068 29.2092Z" fill="white"/>
</svg>
